<?xml version="1.0" encoding="UTF-8"?>
<svg xmlns="http://www.w3.org/2000/svg" viewBox="0 0 513.09 575.28">
  <defs>
    <style>
      .cls-1 {
        fill: #231f20;
        stroke: #070304;
        stroke-miterlimit: 10;
        stroke-width: 67px;
      }
    </style>
  </defs>
  <g id="Layer_1" data-name="Layer 1">
    <path d="M62.08,25.19c17.7,0,32,14.3,32,32v16l69-17.2c38.1-9.5,78.3-5.1,113.5,12.5,46.3,23.2,100.8,23.2,147.1,0l9.6-4.8c20.6-10.4,44.8,4.6,44.8,27.6v279.7c0,13.3-8.3,25.3-20.8,30l-34.7,13c-46.2,17.3-97.6,14.6-141.7-7.4-37.9-19-81.3-23.7-122.5-13.4l-64.3,16v96c0,17.7-14.3,32-32,32s-32-14.3-32-32V57.19c0-17.7,14.3-32,32-32ZM94.08,212.29l64-13.9v65.5l-64,13.9v65.4l48.8-12.2c5.1-1.3,10.1-2.4,15.2-3.3v-63.9l38.9-8.4c8.3-1.8,16.7-2.5,25.1-2.1v-64c13.6.4,27.2,2.6,40.4,6.4l23.6,6.9v66.7l-41.7-12.3c-7.3-2.1-14.8-3.4-22.3-3.8v71.4c21.8,1.9,43.3,6.7,64,14.4v-69.8l22.7,6.7c13.5,4,27.3,6.4,41.3,7.4v-64.2c-7.8-.8-15.6-2.3-23.2-4.5l-40.8-12v-62c-13-3.8-25.8-8.8-38.2-15-8.2-4.1-16.9-7-25.8-8.8v72.4c-13-.4-26,.8-38.7,3.6l-25.3,5.6v-75.2l-64,16v73.1ZM350.08,360.89c16.8,1.5,33.9-.7,50-6.8l14-5.2v-71.7l-7.9,1.8c-18.4,4.3-37.3,5.7-56.1,4.5v77.4ZM414.08,211.49v-70.8c-20.9,6.1-42.4,9.1-64,9.1v69.4c13.9,1.4,28,.5,41.7-2.6l22.3-5.2v.1Z"/>
  </g>
  <g id="Layer_2" data-name="Layer 2">
    <path class="cls-1" d="M25.27,22c154.19,177.1,308.37,354.19,462.56,531.29"/>
  </g>
</svg>